<?xml version="1.0" encoding="UTF-8" standalone="no"?><!DOCTYPE svg PUBLIC "-//W3C//DTD SVG 1.1//EN" "http://www.w3.org/Graphics/SVG/1.1/DTD/svg11.dtd"><svg width="100%" height="100%" viewBox="0 0 1513 548" version="1.1" xmlns="http://www.w3.org/2000/svg" xmlns:xlink="http://www.w3.org/1999/xlink" xml:space="preserve" xmlns:serif="http://www.serif.com/" style="fill-rule:evenodd;clip-rule:evenodd;stroke-linejoin:round;stroke-miterlimit:1.41421;"><g><g><path d="M169.832,251.044l0,-30.9l118.952,0l0,42.051l-10.455,0c-8.673,0 -14.404,1.433 -17.192,4.299c-2.788,2.865 -4.182,8.867 -4.182,18.005l0,198.408c0,9.139 1.394,15.14 4.182,18.006c2.788,2.865 8.519,4.298 17.192,4.298l10.455,0l0,41.819l-156.589,0l0,-41.819l6.737,0c9.758,0 16.263,-1.51 19.516,-4.531c3.252,-3.02 4.879,-8.944 4.879,-17.773l0,-63.425c-9.293,11.306 -19.826,19.709 -31.597,25.207c-11.771,5.499 -24.936,8.248 -39.496,8.248c-28.034,0 -50.415,-10.958 -67.143,-32.874c-16.727,-21.917 -25.091,-51.384 -25.091,-88.401c0,-38.722 8.131,-68.227 24.394,-88.517c16.263,-20.29 39.883,-30.435 70.861,-30.435c14.559,0 27.763,3.02 39.612,9.06c11.848,6.041 23.503,15.799 34.965,29.274Zm-6.505,80.618c0,-23.853 -2.633,-41.742 -7.899,-53.668c-5.267,-11.926 -13.166,-17.889 -23.698,-17.889c-10.377,0 -18.121,5.924 -23.233,17.773c-5.111,11.848 -7.667,29.776 -7.667,53.784c0,24.317 2.517,42.283 7.551,53.9c5.034,11.616 12.817,17.424 23.349,17.424c10.687,0 18.625,-5.808 23.814,-17.424c5.188,-11.617 7.783,-29.583 7.783,-53.9Z" style="fill-rule:nonzero;"/><path d="M397.372,211.548c42.284,0 75.701,10.842 100.25,32.526c24.549,21.684 36.824,51.19 36.824,88.517c0,37.172 -12.197,66.523 -36.592,88.052c-24.394,21.529 -57.733,32.294 -100.017,32.294c-42.593,0 -75.933,-10.687 -100.017,-32.061c-24.085,-21.375 -36.127,-50.803 -36.127,-88.285c0,-37.637 12.042,-67.22 36.127,-88.749c24.084,-21.53 57.269,-32.294 99.552,-32.294Zm35.547,121.043c0,-28.964 -2.672,-48.983 -8.016,-60.057c-5.343,-11.074 -14.52,-16.611 -27.531,-16.611c-12.7,0 -21.684,5.537 -26.95,16.611c-5.266,11.074 -7.899,31.093 -7.899,60.057c0,28.964 2.672,48.944 8.015,59.941c5.344,10.997 14.598,16.495 27.764,16.495c12.7,0 21.645,-5.46 26.834,-16.379c5.188,-10.92 7.783,-30.939 7.783,-60.057Z" style="fill-rule:nonzero;"/><path d="M532.446,189.709c0,-8.828 -1.665,-14.753 -4.995,-17.773c-3.33,-3.02 -10.184,-4.53 -20.561,-4.53l-7.667,0l0,-41.82l127.084,0l0,119.882c8.828,-11.307 19.167,-19.787 31.016,-25.44c11.848,-5.653 25.13,-8.48 39.844,-8.48c27.879,0 50.144,10.997 66.794,32.991c16.65,21.993 24.976,51.654 24.976,88.981c0,39.186 -8.132,68.808 -24.395,88.866c-16.263,20.057 -40.348,30.086 -72.254,30.086c-15.024,0 -28.693,-3.059 -41.006,-9.177c-12.313,-6.118 -24.433,-15.914 -36.359,-29.389l-21.374,30.899l-61.103,0l0,-255.096Zm93.861,143.811c0,23.698 2.594,41.432 7.783,53.203c5.188,11.772 13.049,17.657 23.581,17.657c10.377,0 18.122,-5.847 23.233,-17.54c5.111,-11.694 7.667,-29.467 7.667,-53.32c0,-24.472 -2.517,-42.477 -7.551,-54.016c-5.034,-11.539 -12.817,-17.309 -23.349,-17.309c-10.687,0 -18.586,5.809 -23.697,17.425c-5.112,11.617 -7.667,29.583 -7.667,53.9Z" style="fill-rule:nonzero;"/><path d="M907.05,211.548c42.284,0 75.701,10.842 100.25,32.526c24.549,21.684 36.824,51.19 36.824,88.517c0,37.172 -12.197,66.523 -36.592,88.052c-24.394,21.529 -57.733,32.294 -100.017,32.294c-42.593,0 -75.933,-10.687 -100.017,-32.061c-24.085,-21.375 -36.127,-50.803 -36.127,-88.285c0,-37.637 12.042,-67.22 36.127,-88.749c24.084,-21.53 57.269,-32.294 99.552,-32.294Zm35.547,121.043c0,-28.964 -2.672,-48.983 -8.016,-60.057c-5.343,-11.074 -14.52,-16.611 -27.531,-16.611c-12.7,0 -21.684,5.537 -26.95,16.611c-5.266,11.074 -7.899,31.093 -7.899,60.057c0,28.964 2.672,48.944 8.015,59.941c5.344,10.997 14.598,16.495 27.764,16.495c12.7,0 21.645,-5.46 26.834,-16.379c5.188,-10.92 7.783,-30.939 7.783,-60.057Z" style="fill-rule:nonzero;"/></g><g><path d="M1512.09,125.076c0,-69.032 -56.044,-125.076 -125.076,-125.076l-196.547,0c-69.031,0 -125.075,56.044 -125.075,125.076l0,196.547c0,69.031 56.044,125.075 125.075,125.075l196.547,0c69.032,0 125.076,-56.044 125.076,-125.075l0,-196.547Z"/><path d="M1459.58,137.929c0,-47.145 -38.276,-85.421 -85.421,-85.421l-170.841,0c-47.145,0 -85.42,38.276 -85.42,85.421l0,170.841c0,47.145 38.275,85.42 85.42,85.42l170.841,0c47.145,0 85.421,-38.275 85.421,-85.42l0,-170.841Z" style="fill:#ff22bd;"/><path d="M1156.85,226.964c0,28.272 22.953,51.225 51.224,51.225l102.449,0c28.272,0 51.225,-22.953 51.225,-51.225l0,-102.449c0,-28.271 -22.953,-51.224 -51.225,-51.224l-102.449,0c-28.271,0 -51.224,22.953 -51.224,51.224l0,102.449Z"/><path d="M1200.06,205.359c0,16.348 13.272,29.62 29.619,29.62l59.239,0c16.348,0 29.62,-13.272 29.62,-29.62l0,-59.238c0,-16.348 -13.272,-29.62 -29.62,-29.62l-59.239,0c-16.347,0 -29.619,13.272 -29.619,29.62l0,59.238Z" style="fill:#fff;"/><path d="M1279.96,289.008c0,16.348 13.272,29.62 29.62,29.62l59.238,0c16.348,0 29.62,-13.272 29.62,-29.62l0,-59.238c0,-16.348 -13.272,-29.62 -29.62,-29.62l-59.238,0c-16.348,0 -29.62,13.272 -29.62,29.62l0,59.238Z" style="fill:#fff;"/><path d="M1302.86,307.632c0,16.25 13.193,29.443 29.443,29.443l58.886,0c16.25,0 29.443,-13.193 29.443,-29.443l0,-58.886c0,-16.25 -13.193,-29.443 -29.443,-29.443l-58.886,0c-16.25,0 -29.443,13.193 -29.443,29.443l0,58.886Z"/><path d="M1266.53,355.241c0,10.027 8.14,18.166 18.167,18.166l36.332,0c10.026,0 18.166,-8.139 18.166,-18.166l0,-36.332c0,-10.026 -8.14,-18.166 -18.166,-18.166l-36.332,0c-10.027,0 -18.167,8.14 -18.167,18.166l0,36.332Z"/></g></g></svg>